<svg width="61" height="61" viewBox="0 0 61 61" fill="none" xmlns="http://www.w3.org/2000/svg">
<circle cx="30.4243" cy="30.6924" r="30" fill="#FAE2CB"/>
<g clip-path="url(#clip0_1050_1334)">
<path d="M28.4246 15.1924H32.4212C32.6097 15.2159 32.7974 15.2411 32.9858 15.2622C35.8019 15.5774 38.3368 16.5872 40.5419 18.3777C43.3173 20.6353 45.0462 23.5265 45.6922 27.0522C45.7921 27.5956 45.8506 28.1464 45.9286 28.694V29.8443C45.6702 30.4942 45.1827 30.7013 44.4994 30.7005C35.1153 30.6875 25.7315 30.6845 16.348 30.6916C16.2472 30.6916 16.1457 30.6916 16.0449 30.6916C15.3884 30.6688 14.9261 30.2041 14.9302 29.5478C14.9295 29.0735 14.9528 28.5996 15.0001 28.1277C15.3064 25.3226 16.3138 22.7962 18.094 20.6003C20.3527 17.8131 23.2516 16.0771 26.7875 15.4288C27.3278 15.3289 27.8762 15.2704 28.4246 15.1924ZM25.9945 23.498C25.9945 23.2966 26.0059 23.0919 25.9945 22.8945C25.9531 22.3022 25.5119 21.8668 24.9464 21.8457C24.3484 21.8238 23.8634 22.2088 23.8089 22.8157C23.7663 23.2663 23.7663 23.72 23.8089 24.1707C23.8322 24.4501 23.9646 24.7091 24.1775 24.8916C24.3904 25.0741 24.6667 25.1653 24.9464 25.1455C25.533 25.1138 25.9677 24.6744 26.0026 24.0691C26.0075 23.8807 25.9945 23.689 25.9945 23.498ZM34.8505 23.498C34.8505 23.7093 34.8342 23.9221 34.8505 24.1317C34.871 24.4058 34.9937 24.6623 35.1942 24.8503C35.3948 25.0383 35.6586 25.1443 35.9335 25.1472C36.2041 25.1592 36.469 25.0669 36.6734 24.8892C36.8778 24.7116 37.0062 24.4622 37.032 24.1926C37.076 23.7333 37.076 23.2709 37.032 22.8116C36.9743 22.2064 36.486 21.8221 35.888 21.8457C35.3193 21.8684 34.8838 22.3055 34.8432 22.9018C34.8415 23.0984 34.8529 23.3006 34.8529 23.5013L34.8505 23.498ZM31.512 23.5135C31.512 23.2698 31.5307 23.0261 31.512 22.7897C31.4807 22.5275 31.3542 22.286 31.1565 22.1111C30.9587 21.9361 30.7036 21.8399 30.4395 21.8408C29.8749 21.8359 29.3776 22.247 29.3411 22.7921C29.3118 23.2541 29.3118 23.7176 29.3411 24.1796C29.3744 24.7272 29.87 25.148 30.4282 25.1472C30.6974 25.1491 30.9578 25.0509 31.1587 24.8716C31.3596 24.6924 31.4867 24.4449 31.5153 24.1772C31.5323 23.9603 31.5145 23.7377 31.5145 23.5143L31.512 23.5135Z" fill="#60340B"/>
<path d="M45.9244 38.1996V41.224C45.8294 41.6132 45.7619 42.0129 45.6336 42.3898C44.8211 44.7416 42.7769 46.1868 40.2607 46.1884C33.7018 46.1884 27.1424 46.1884 20.5825 46.1884C20.4314 46.1884 20.2795 46.1884 20.1283 46.1771C17.6462 46.0479 15.4436 44.1648 15.052 41.7139C14.8895 40.6976 14.9456 39.6448 14.9252 38.6074C14.909 37.765 15.3437 37.3385 16.1846 37.3385C21.2398 37.3385 26.2956 37.3371 31.3519 37.3344C31.7168 37.3292 32.0724 37.4493 32.3593 37.6748C33.4212 38.4782 34.488 39.2744 35.554 40.0729C35.6889 40.1737 35.8262 40.2719 35.9602 40.3727C37.1716 39.4645 38.3684 38.5717 39.5587 37.6716C39.846 37.4461 40.2026 37.3269 40.5678 37.3344C41.8897 37.3434 43.2116 37.3572 44.5335 37.3296C45.2168 37.3174 45.6856 37.5521 45.9244 38.1996Z" fill="#60340B"/>
<path d="M45.9244 34.2645C45.6742 34.9217 45.1859 35.1264 44.5018 35.1256C35.0771 35.1132 25.6523 35.1105 16.2276 35.1175C15.5256 35.1175 15.1088 34.8389 14.9618 34.2767C14.9239 34.1274 14.918 33.9718 14.9446 33.8201C14.9712 33.6684 15.0296 33.524 15.1161 33.3965C15.2025 33.2691 15.315 33.1613 15.4461 33.0805C15.5772 32.9996 15.7239 32.9474 15.8766 32.9274C16.0172 32.9129 16.1586 32.9069 16.2999 32.9095C25.716 32.9095 35.1315 32.9068 44.5465 32.9014C45.2257 32.9014 45.6937 33.1296 45.9277 33.7795L45.9244 34.2645Z" fill="#60340B"/>
</g>
<defs>
<clipPath id="clip0_1050_1334">
<rect width="31" height="31" fill="white" transform="translate(14.9243 15.1924)"/>
</clipPath>
</defs>
</svg>
