<svg width="96" height="96" viewBox="0 0 96 96" fill="none" xmlns="http://www.w3.org/2000/svg">
<g id="Group 312">
<circle id="Ellipse 33" cx="47.7188" cy="48.2344" r="47.4141" fill="#1D0605" fill-opacity="0.2"/>
<path id="Vector" d="M45.6352 26.2522V21.9518C44.2474 21.9518 42.8856 21.9694 41.5256 21.9466C39.9987 21.9219 38.9952 20.4357 39.5691 19.055C39.9117 18.2337 40.5517 17.7518 41.4369 17.7482C45.6474 17.7306 49.8578 17.7289 54.0665 17.7482C55.1969 17.7535 56.0752 18.7138 56.0804 19.8324C56.0856 20.9792 55.1935 21.9219 54.0248 21.943C52.6595 21.9677 51.2943 21.9483 49.8804 21.9483V26.2627C55.1187 26.764 59.7761 28.7022 63.9204 32.2006C64.3691 31.7186 64.8039 31.2385 65.2543 30.7724C65.83 30.1744 66.4108 29.5834 66.9987 28.9977C67.9378 28.062 69.2126 28.0216 70.0682 28.8922C70.9221 29.7611 70.8735 31.038 69.9378 31.9948C69.0682 32.8847 68.1848 33.7589 67.3082 34.6436C67.1569 34.7966 67.0143 34.9584 66.8456 35.1396C71.2856 40.6799 73.2804 46.98 72.5848 54.0646C72.0335 59.677 69.7813 64.5543 66.0074 68.7121C58.7361 76.7218 46.6613 79.0154 36.9795 74.2999C26.9639 69.4245 21.5691 58.7571 22.9256 48.1936C24.3691 36.9529 33.2995 27.4376 45.6352 26.2522ZM26.9117 51.4158C26.903 63.0188 36.1987 72.4831 47.6369 72.5165C59.2108 72.5517 68.5621 63.1472 68.5865 51.4457C68.6108 39.8814 59.2543 30.3854 47.83 30.3784C36.2735 30.3696 26.9204 39.7758 26.9117 51.4158Z" fill="#FAE2CB"/>
<path id="Vector_2" d="M64.418 51.4846C64.4215 60.7167 56.9415 68.2937 47.8093 68.3043C38.5485 68.3148 31.0719 60.7659 31.0772 51.4107C31.0824 42.1681 38.5554 34.5998 47.6841 34.5928C56.9519 34.5857 64.4128 42.1153 64.4163 51.4828L64.418 51.4846ZM45.665 46.1764C45.665 47.8878 45.6128 49.6009 45.6945 51.307C45.7206 51.8715 45.9519 52.5522 46.3276 52.9497C48.3485 55.0902 50.4302 57.1744 52.5311 59.2375C52.8615 59.5611 53.3815 59.7792 53.8441 59.8549C54.7067 59.9956 55.5345 59.4539 55.8998 58.6606C56.2772 57.841 56.1258 56.944 55.4389 56.244C53.7119 54.4852 51.9606 52.751 50.2476 50.9798C50.0232 50.7476 49.8545 50.3501 49.8511 50.0283C49.8215 47.1121 49.8337 44.1942 49.8337 41.2781C49.8337 39.7725 49.0041 38.8017 47.7328 38.8122C46.4806 38.8228 45.6685 39.7761 45.6667 41.2447C45.665 42.8892 45.6667 44.5337 45.6667 46.1782L45.665 46.1764Z" fill="#FAE2CB"/>
</g>
</svg>
