<svg width="61" height="61" viewBox="0 0 61 61" fill="none" xmlns="http://www.w3.org/2000/svg">
<circle cx="30.4243" cy="30.6924" r="30" fill="#FAE2CB"/>
<g clip-path="url(#clip0_1050_1354)">
<path d="M41.5848 37.5751C42.7639 37.5432 43.7682 37.9035 44.6088 38.6912C45.3723 39.4057 45.7896 40.3002 45.9177 41.3413C45.9601 41.6861 45.8091 41.8938 45.508 42.0049C45.7624 44.1673 44.8591 45.6781 43.0862 46.109C41.679 46.4537 39.6763 45.778 39.1266 43.4907C39.1088 43.4907 39.0825 43.4847 39.074 43.4907C38.5761 44.0501 38.2173 43.9863 37.9493 43.2865C37.8839 43.1141 37.8339 42.9417 37.7932 42.8176C37.4751 42.8521 37.1714 42.9133 36.8669 42.9142C34.2413 42.9216 31.6157 42.9216 28.9901 42.9142C28.7356 42.9142 28.6135 42.9392 28.566 43.2589C28.3284 44.8378 26.9331 45.9978 25.3426 45.9831C24.5737 45.9796 23.8312 45.6979 23.2481 45.1886C22.665 44.6793 22.2796 43.9756 22.1608 43.2037C22.1481 43.1176 22.1286 43.0365 22.115 42.9659C21.8606 42.9159 21.6146 42.8952 21.3872 42.8185C20.4296 42.497 19.8918 41.5602 19.9741 40.4123C20.0327 39.6284 20.2259 38.861 20.5449 38.1448C20.8596 37.4303 21.2235 36.7392 21.584 36.0454C21.6127 35.9941 21.6523 35.9498 21.6998 35.9158C21.7473 35.8819 21.8016 35.859 21.8589 35.8489C24.357 35.8394 26.8559 35.842 29.354 35.8437C29.3747 35.847 29.3947 35.8537 29.4134 35.8635C29.2496 37.4088 29.4804 38.2767 30.209 38.7679C30.2378 38.3275 30.2675 37.9061 30.2938 37.4803C30.3956 35.7423 30.4974 34.0037 30.5992 32.2645C30.6297 31.7474 30.4804 31.5665 29.9681 31.5104C29.2004 31.4243 28.4328 31.3432 27.666 31.2519C27.4544 31.2308 27.2496 31.1645 27.0651 31.0572C26.8806 30.9499 26.7206 30.8042 26.5955 30.6296C26.4704 30.4549 26.3831 30.2554 26.3394 30.044C26.2957 29.8327 26.2965 29.6143 26.3419 29.4033C26.814 27.0683 27.2927 24.7345 27.7779 22.4018C27.9925 21.3676 28.851 20.7531 29.8502 20.8746C30.751 20.9832 31.4245 21.8045 31.4466 22.793C31.457 22.9466 31.5166 23.0925 31.6162 23.2084C32.501 24.2082 33.6648 24.7373 34.8752 25.1906C35.4488 25.4126 36.06 25.5166 36.6735 25.4966C37.498 25.4664 38.3242 25.4863 39.1504 25.4906C40.1844 25.4966 40.79 26.1094 40.796 27.1522C40.796 27.4745 40.8036 27.7977 40.7909 28.12C40.7791 28.5061 40.6223 28.873 40.3528 29.1454C40.0832 29.4179 39.7213 29.5752 39.3412 29.5851C39.0019 29.5963 38.6686 29.5851 38.2877 29.5851C38.5303 31.4079 38.9163 33.0919 40.4524 34.2528C41.4381 34.9983 41.8215 36.0195 41.6298 37.258C41.6128 37.3519 41.6018 37.4467 41.5848 37.5751ZM35.2069 28.0226C33.5681 27.8337 32.0134 27.1856 30.7163 26.1507C30.5916 26.6963 30.4711 27.1935 30.3642 27.6934C30.2794 28.1071 30.3744 28.2838 30.768 28.4354C31.4896 28.7124 32.2117 28.9873 32.9344 29.2602C33.848 29.6049 34.2 30.1272 34.1033 31.1054C33.8938 33.2332 33.6614 35.3585 33.44 37.4829C33.3772 38.0862 33.3178 38.6895 33.2568 39.3074H35.2077L35.2069 28.0226ZM42.3321 45.1334C43.9616 45.1403 45.0609 43.4364 44.3976 41.9386C44.3645 41.8427 44.3042 41.7588 44.2244 41.6975C44.1446 41.6362 44.0488 41.6001 43.9489 41.5938C42.6926 41.4646 41.5085 41.68 40.4083 42.329C40.3091 42.3796 40.2267 42.4587 40.1714 42.5564C40.1161 42.6542 40.0902 42.7663 40.097 42.8788C40.1067 43.4764 40.3457 44.0464 40.7631 44.4676C41.1804 44.8887 41.7431 45.1276 42.3313 45.1334H42.3321ZM23.1864 42.9383C23.1753 44.0423 24.2738 45.0067 25.4707 44.955C26.587 44.9084 27.6286 43.9035 27.5447 42.9383H23.1864Z" fill="#60340B"/>
<path d="M20.0121 22.4187C21.155 22.4187 22.2978 22.4187 23.4407 22.4187C24.4586 22.4187 25.0888 23.059 25.0897 24.0855C25.0897 25.9022 25.0897 27.7189 25.0897 29.5357C25.0897 30.5457 24.4552 31.1921 23.4653 31.193C21.1581 31.193 18.8508 31.193 16.5436 31.193C15.5724 31.193 14.932 30.5423 14.9269 29.5607C14.9235 27.7221 14.9235 25.8835 14.9269 24.0449C14.9269 23.0797 15.5724 22.4238 16.5199 22.4195C17.6837 22.4144 18.8475 22.4187 20.0121 22.4187Z" fill="#60340B"/>
<path d="M29.6432 34.8076H28.1706C26.0017 34.8076 23.8319 34.8076 21.6629 34.8128C21.5698 34.8205 21.4764 34.8036 21.3916 34.7638C21.3069 34.7239 21.2338 34.6624 21.1794 34.5852C20.7821 34.0766 20.5519 33.4541 20.5212 32.8056C20.5 32.3626 20.6849 32.1592 21.1149 32.1592C23.7603 32.1592 26.406 32.1592 29.052 32.1592C29.4142 32.1592 29.6288 32.3203 29.6381 32.6496C29.6568 33.3528 29.6432 34.0604 29.6432 34.8076Z" fill="#60340B"/>
<path d="M28.6489 17.7596C28.6541 17.0744 28.9267 16.4194 29.4069 15.9384C29.887 15.4573 30.5355 15.1895 31.2098 15.1939C31.544 15.1967 31.8743 15.2664 32.182 15.3989C32.4897 15.5315 32.7687 15.7243 33.003 15.9664C33.2373 16.2085 33.4224 16.4951 33.5478 16.8099C33.6731 17.1246 33.7361 17.4614 33.7333 17.8009C33.7246 18.4808 33.4527 19.1298 32.9764 19.6075C32.5001 20.0851 31.8578 20.3529 31.1886 20.3528C30.8542 20.3521 30.5232 20.2845 30.2146 20.1538C29.9059 20.0231 29.6256 19.8318 29.3898 19.591C29.1539 19.3501 28.9671 19.0644 28.84 18.7502C28.7128 18.4359 28.6479 18.0993 28.6489 17.7596Z" fill="#60340B"/>
</g>
<defs>
<clipPath id="clip0_1050_1354">
<rect width="31" height="31" fill="white" transform="translate(14.9243 15.1924)"/>
</clipPath>
</defs>
</svg>
