<svg width="61" height="61" viewBox="0 0 61 61" fill="none" xmlns="http://www.w3.org/2000/svg">
<circle cx="30.4243" cy="30.6924" r="30" fill="#FAE2CB"/>
<g clip-path="url(#clip0_1050_1343)">
<path d="M31.2864 15.1922C31.9446 15.2916 32.6158 15.3386 33.2595 15.4956C38.9551 16.9016 42.4745 20.4699 43.8366 26.1502C43.9311 26.5838 43.9972 27.0231 44.0344 27.4653C44.0801 27.896 44.09 28.3298 44.1196 28.8357C43.988 28.7393 43.8499 28.6519 43.7065 28.574C43.3016 28.3935 42.8968 28.21 42.4806 28.0629C42.3018 27.9999 42.2257 27.9347 42.2074 27.7398C42.028 25.6797 41.2986 23.7051 40.095 22.0208C38.7401 20.0884 36.8301 18.61 34.6163 17.7798C32.9091 17.1236 31.0698 16.8814 29.2501 17.073C26.9478 17.2923 24.7642 18.1939 22.9807 19.6614C21.0661 21.1979 19.6869 23.2975 19.0398 25.661C18.8466 26.3436 18.7804 27.0663 18.6457 27.7686C18.6282 27.8604 18.5696 27.9863 18.4935 28.0181C17.9243 28.2631 17.3467 28.4883 16.7197 28.7409C16.7958 28.0159 16.8194 27.2506 16.964 26.5082C17.89 21.7409 20.5853 18.3403 25.0086 16.3154C26.3672 15.7036 27.825 15.3398 29.3125 15.2415C29.402 15.2295 29.4907 15.2123 29.5781 15.1899L31.2864 15.1922Z" fill="#60340B"/>
<path d="M33.0025 42.55C34.045 42.55 35.0791 42.5887 36.1087 42.5394C37.2341 42.4855 38.2089 41.6702 38.4531 40.7192C37.9966 40.698 37.5126 40.7488 37.0675 40.6434C35.8134 40.34 35.0129 39.3207 35 38.0254C34.9779 35.5629 34.965 33.1004 35 30.6387C35.0327 28.4644 37.2828 27.2259 39.1509 28.3286C40.0199 28.8413 40.4445 29.6535 40.4521 30.6485C40.4658 33.7579 40.4826 36.8673 40.446 39.9768C40.4179 42.3718 38.4356 44.317 36.0326 44.3754C35.1012 44.3982 34.1698 44.386 33.2384 44.3754C33.0596 44.3754 32.9767 44.4331 32.9013 44.5931C32.3481 45.7822 31.107 46.4018 29.8484 46.1296C28.6347 45.8672 27.7482 44.7895 27.7041 43.5238C27.6615 42.2823 28.5465 41.1447 29.8051 40.8239C30.9944 40.5205 32.3162 41.1386 32.8625 42.2519C32.9112 42.3528 32.9561 42.4514 33.0025 42.55Z" fill="#60340B"/>
<path d="M25.8785 34.3577C25.8785 35.5484 25.8846 36.7391 25.8785 37.929C25.8709 39.1667 25.1434 40.2224 24.0735 40.572C22.2358 41.1711 20.453 39.9607 20.421 38.0336C20.3825 35.5628 20.3825 33.0912 20.421 30.6188C20.4591 28.459 22.6955 27.2319 24.559 28.3217C25.463 28.8526 25.8678 29.6944 25.8754 30.7258C25.8853 31.9369 25.8785 33.1473 25.8785 34.3577Z" fill="#60340B"/>
<path d="M18.6206 29.915V38.7548C17.8992 38.5122 17.3529 38.0556 17.0546 37.3655C16.8886 36.9777 16.796 36.5627 16.7814 36.1414C16.7464 34.9326 16.7624 33.7214 16.7708 32.5118C16.7761 31.2801 17.5325 30.2184 18.6206 29.915Z" fill="#60340B"/>
<path d="M42.2544 38.7397V29.8999C42.8099 30.0776 43.2896 30.436 43.6165 30.9177C43.9401 31.3742 44.1108 31.921 44.1042 32.48C44.1042 33.7101 44.1141 34.9402 44.1042 36.1703C44.0913 37.386 43.3342 38.4273 42.2544 38.7397Z" fill="#60340B"/>
</g>
<defs>
<clipPath id="clip0_1050_1343">
<rect width="27.3953" height="31" fill="white" transform="translate(16.7266 15.1924)"/>
</clipPath>
</defs>
</svg>
