<svg width="27" height="16" viewBox="0 0 27 16" fill="none" xmlns="http://www.w3.org/2000/svg">
<g id="ifood-43 1" clip-path="url(#clip0_1050_1180)">
<path id="Vector" d="M0 8.99417H2.05485L3.1967 3.31449H1.14158L0 8.99417ZM1.2548 2.63707H3.31826L3.65737 0.937734H1.59472L1.2548 2.63707ZM2.85409 10.5924H4.90921L6.16482 4.45607H7.70603L7.93327 3.31449H6.42164L6.47892 3.05766C6.56444 2.5736 6.73575 2.0301 7.50622 2.0301C7.96339 2.0301 8.39124 2.05861 8.8191 2.25842L9.04769 1.05983C8.57086 0.89158 8.06914 0.804672 7.5635 0.802734C5.908 0.802734 4.76668 1.77328 4.33829 3.31449H3.62483L3.39651 4.45607H4.10997L2.85409 10.5924Z" fill="white"/>
<path id="Vector_2" d="M9.36171 9.10833C11.7877 9.10833 13.4717 6.91041 13.4717 5.11238C13.4717 3.77099 12.2443 3.20006 11.0457 3.20006C8.39062 3.20006 6.93574 5.57036 6.93574 7.19601C6.93574 8.5374 8.19162 9.10833 9.36171 9.10833ZM15.8697 9.10833C18.2956 9.10833 19.9796 6.91041 19.9796 5.11238C19.9796 3.77099 18.7238 3.20006 17.5249 3.20006C14.8706 3.20006 13.4152 5.56902 13.4152 7.19601C13.4152 8.5374 14.6996 9.10833 15.8697 9.10833ZM23.3189 8.99403H25.3452L27.0002 0.917969H24.9453L24.4599 3.31543L23.6037 3.22991C21.6058 3.22991 19.7793 5.79841 19.7793 7.62521C19.7793 8.36717 20.2634 9.1094 21.0922 9.1094C22.2623 9.1094 23.09 8.53848 23.4318 7.96755H23.5459L23.3189 8.99403ZM16.9822 13.2468C15.3872 14.5684 13.3385 15.2137 11.274 15.0448C8.56246 14.8735 6.62164 12.7899 6.2793 10.5923H6.39332C7.02126 11.9638 8.53396 13.2468 10.3893 13.4463C12.2717 13.6747 14.5277 12.8187 15.7548 11.6483L14.3849 10.5923H18.5234L17.6091 14.9878L17.0096 13.2753L16.9822 13.2468Z" fill="white"/>
</g>
<defs>
<clipPath id="clip0_1050_1180">
<rect width="27" height="14.2686" fill="white" transform="translate(0 0.802734)"/>
</clipPath>
</defs>
</svg>
