<svg width="27" height="16" viewBox="0 0 27 16" fill="none" xmlns="http://www.w3.org/2000/svg">
<g id="ifood-43 2" clip-path="url(#clip0_1050_1378)">
<path id="Vector" d="M0 8.93362H2.05485L3.1967 3.25394H1.14158L0 8.93362ZM1.2548 2.57652H3.31826L3.65737 0.877187H1.59472L1.2548 2.57652ZM2.85409 10.5318H4.90921L6.16482 4.39552H7.70603L7.93327 3.25394H6.42164L6.47892 2.99712C6.56444 2.51305 6.73575 1.96956 7.50622 1.96956C7.96339 1.96956 8.39124 1.99806 8.8191 2.19787L9.04769 0.999279C8.57086 0.831033 8.06914 0.744125 7.5635 0.742188C5.908 0.742188 4.76668 1.71273 4.33829 3.25394H3.62483L3.39651 4.39552H4.10997L2.85409 10.5318Z" fill="#F59A1B"/>
<path id="Vector_2" d="M9.36171 9.04778C11.7877 9.04778 13.4717 6.84986 13.4717 5.05183C13.4717 3.71044 12.2443 3.13951 11.0457 3.13951C8.39062 3.13951 6.93574 5.50981 6.93574 7.13546C6.93574 8.47685 8.19162 9.04778 9.36171 9.04778ZM15.8697 9.04778C18.2956 9.04778 19.9796 6.84986 19.9796 5.05183C19.9796 3.71044 18.7238 3.13951 17.5249 3.13951C14.8706 3.13951 13.4152 5.50847 13.4152 7.13546C13.4152 8.47685 14.6996 9.04778 15.8697 9.04778ZM23.3189 8.93349H25.3452L27.0002 0.857422H24.9453L24.4599 3.25488L23.6037 3.16936C21.6058 3.16936 19.7793 5.73786 19.7793 7.56466C19.7793 8.30663 20.2634 9.04886 21.0922 9.04886C22.2623 9.04886 23.09 8.47793 23.4318 7.907H23.5459L23.3189 8.93349ZM16.9822 13.1863C15.3872 14.5078 13.3385 15.1531 11.274 14.9843C8.56246 14.813 6.62164 12.7294 6.2793 10.5317H6.39332C7.02126 11.9032 8.53396 13.1863 10.3893 13.3858C12.2717 13.6141 14.5277 12.7581 15.7548 11.5878L14.3849 10.5317H18.5234L17.6091 14.9273L17.0096 13.2148L16.9822 13.1863Z" fill="#F59A1B"/>
</g>
<defs>
<clipPath id="clip0_1050_1378">
<rect width="27" height="14.2686" fill="white" transform="translate(0 0.742188)"/>
</clipPath>
</defs>
</svg>
