<svg width="28" height="15" viewBox="0 0 28 15" fill="none" xmlns="http://www.w3.org/2000/svg">
<g id="ifood-43 3" clip-path="url(#clip0_1050_380)">
<path id="Vector" d="M0.435547 8.83499H2.4904L3.63225 3.15531H1.57713L0.435547 8.83499ZM1.69035 2.47789H3.7538L4.09292 0.778554H2.03027L1.69035 2.47789ZM3.28964 10.4332H5.34476L6.60037 4.29689H8.14157L8.36881 3.15531H6.85719L6.91447 2.89848C6.99999 2.41442 7.17129 1.87093 7.94176 1.87093C8.39893 1.87093 8.82679 1.89943 9.25465 2.09924L9.48324 0.900646C9.0064 0.7324 8.50468 0.645493 7.99904 0.643555C6.34354 0.643555 5.20223 1.6141 4.77383 3.15531H4.06038L3.83206 4.29689H4.54552L3.28964 10.4332Z" fill="#60340B"/>
<path id="Vector_2" d="M9.79725 8.94915C12.2232 8.94915 13.9072 6.75123 13.9072 4.9532C13.9072 3.61181 12.6799 3.04088 11.4813 3.04088C8.82617 3.04088 7.37129 5.41118 7.37129 7.03683C7.37129 8.37822 8.62716 8.94915 9.79725 8.94915ZM16.3052 8.94915C18.7312 8.94915 20.4152 6.75123 20.4152 4.9532C20.4152 3.61181 19.1593 3.04088 17.9605 3.04088C15.3062 3.04088 13.8507 5.40984 13.8507 7.03683C13.8507 8.37822 15.1351 8.94915 16.3052 8.94915ZM23.7544 8.83486H25.7808L27.4357 0.758789H25.3809L24.8955 3.15625L24.0392 3.07073C22.0414 3.07073 20.2148 5.63923 20.2148 7.46603C20.2148 8.20799 20.6989 8.95022 21.5277 8.95022C22.6978 8.95022 23.5256 8.3793 23.8674 7.80837H23.9814L23.7544 8.83486ZM17.4178 13.0876C15.8227 14.4092 13.7741 15.0545 11.7096 14.8857C8.99801 14.7143 7.05718 12.6307 6.71484 10.4331H6.82887C7.45681 11.8046 8.96951 13.0876 10.8248 13.2872C12.7073 13.5155 14.9633 12.6595 16.1904 11.4891L14.8205 10.4331H18.959L18.0446 14.8286L17.4452 13.1161L17.4178 13.0876Z" fill="#60340B"/>
</g>
<defs>
<clipPath id="clip0_1050_380">
<rect width="27" height="14.2686" fill="white" transform="translate(0.435547 0.643555)"/>
</clipPath>
</defs>
</svg>
