<svg width="27" height="28" viewBox="0 0 27 28" fill="none" xmlns="http://www.w3.org/2000/svg">
<g id="instagram-brands">
<path id="Vector" d="M13.5021 9.32204C10.9476 9.32204 8.88709 11.3825 8.88709 13.937C8.88709 16.4915 10.9476 18.552 13.5021 18.552C16.0566 18.552 18.117 16.4915 18.117 13.937C18.117 11.3825 16.0566 9.32204 13.5021 9.32204ZM13.5021 16.9373C11.8513 16.9373 10.5017 15.5918 10.5017 13.937C10.5017 12.2822 11.8473 10.9367 13.5021 10.9367C15.1569 10.9367 16.5024 12.2822 16.5024 13.937C16.5024 15.5918 15.1529 16.9373 13.5021 16.9373ZM19.3822 9.13326C19.3822 9.73172 18.9003 10.2097 18.3058 10.2097C17.7074 10.2097 17.2294 9.72771 17.2294 9.13326C17.2294 8.53882 17.7114 8.05684 18.3058 8.05684C18.9003 8.05684 19.3822 8.53882 19.3822 9.13326ZM22.4388 10.2258C22.3705 8.78383 22.0412 7.50658 20.9848 6.45425C19.9325 5.40192 18.6552 5.07257 17.2133 5.00027C15.7272 4.91593 11.2729 4.91593 9.78679 5.00027C8.34888 5.06855 7.07163 5.39791 6.01528 6.45023C4.95894 7.50256 4.6336 8.77981 4.56131 10.2217C4.47696 11.7078 4.47696 16.1622 4.56131 17.6483C4.62959 19.0902 4.95894 20.3674 6.01528 21.4198C7.07163 22.4721 8.34486 22.8015 9.78679 22.8738C11.2729 22.9581 15.7272 22.9581 17.2133 22.8738C18.6552 22.8055 19.9325 22.4761 20.9848 21.4198C22.0372 20.3674 22.3665 19.0902 22.4388 17.6483C22.5232 16.1622 22.5232 11.7119 22.4388 10.2258ZM20.5189 19.2428C20.2056 20.0301 19.5991 20.6366 18.8079 20.9539C17.623 21.4238 14.8114 21.3153 13.5021 21.3153C12.1927 21.3153 9.37711 21.4198 8.19625 20.9539C7.40901 20.6406 6.80252 20.0341 6.48522 19.2428C6.01528 18.058 6.12373 15.2464 6.12373 13.937C6.12373 12.6276 6.0193 9.81205 6.48522 8.6312C6.7985 7.84396 7.405 7.23747 8.19625 6.92016C9.38112 6.45023 12.1927 6.55868 13.5021 6.55868C14.8114 6.55868 17.627 6.45425 18.8079 6.92016C19.5951 7.23345 20.2016 7.83995 20.5189 8.6312C20.9888 9.81607 20.8804 12.6276 20.8804 13.937C20.8804 15.2464 20.9888 18.062 20.5189 19.2428Z" fill="white"/>
</g>
</svg>
