<svg width="27" height="28" viewBox="0 0 27 28" fill="none" xmlns="http://www.w3.org/2000/svg">
<path d="M13.5021 9.261C10.9476 9.261 8.88709 11.3215 8.88709 13.876C8.88709 16.4305 10.9476 18.4909 13.5021 18.4909C16.0566 18.4909 18.117 16.4305 18.117 13.876C18.117 11.3215 16.0566 9.261 13.5021 9.261ZM13.5021 16.8763C11.8513 16.8763 10.5017 15.5308 10.5017 13.876C10.5017 12.2212 11.8473 10.8756 13.5021 10.8756C15.1569 10.8756 16.5024 12.2212 16.5024 13.876C16.5024 15.5308 15.1529 16.8763 13.5021 16.8763ZM19.3822 9.07223C19.3822 9.67069 18.9003 10.1487 18.3058 10.1487C17.7074 10.1487 17.2294 9.66667 17.2294 9.07223C17.2294 8.47778 17.7114 7.9958 18.3058 7.9958C18.9003 7.9958 19.3822 8.47778 19.3822 9.07223ZM22.4388 10.1647C22.3705 8.72279 22.0412 7.44554 20.9848 6.39321C19.9325 5.34089 18.6552 5.01153 17.2133 4.93924C15.7272 4.85489 11.2729 4.85489 9.78679 4.93924C8.34888 5.00752 7.07163 5.33687 6.01528 6.3892C4.95894 7.44152 4.6336 8.71877 4.56131 10.1607C4.47696 11.6468 4.47696 16.1011 4.56131 17.5872C4.62959 19.0292 4.95894 20.3064 6.01528 21.3587C7.07163 22.4111 8.34486 22.7404 9.78679 22.8127C11.2729 22.8971 15.7272 22.8971 17.2133 22.8127C18.6552 22.7444 19.9325 22.4151 20.9848 21.3587C22.0372 20.3064 22.3665 19.0292 22.4388 17.5872C22.5232 16.1011 22.5232 11.6508 22.4388 10.1647ZM20.5189 19.1818C20.2056 19.969 19.5991 20.5755 18.8079 20.8928C17.623 21.3628 14.8114 21.2543 13.5021 21.2543C12.1927 21.2543 9.37711 21.3587 8.19625 20.8928C7.40901 20.5795 6.80252 19.973 6.48522 19.1818C6.01528 17.9969 6.12373 15.1854 6.12373 13.876C6.12373 12.5666 6.0193 9.75102 6.48522 8.57016C6.7985 7.78293 7.405 7.17643 8.19625 6.85913C9.38112 6.3892 12.1927 6.49764 13.5021 6.49764C14.8114 6.49764 17.627 6.39321 18.8079 6.85913C19.5951 7.17242 20.2016 7.77891 20.5189 8.57016C20.9888 9.75503 20.8804 12.5666 20.8804 13.876C20.8804 15.1854 20.9888 18.0009 20.5189 19.1818Z" fill="#F59A1B"/>
</svg>
