<svg width="31" height="32" viewBox="0 0 31 32" fill="none" xmlns="http://www.w3.org/2000/svg">
<g clip-path="url(#clip0_1050_1388)">
<path d="M26.69 25.5604V27.7737C26.6199 28.058 26.5721 28.35 26.4773 28.6258C25.8849 30.3453 24.3888 31.3992 22.5484 31.403C17.7535 31.403 12.9586 31.403 8.16375 31.403C8.05282 31.403 7.94265 31.403 7.83172 31.3946C6.01592 31.3029 4.40582 29.9239 4.11769 28.132C3.99905 27.3885 4.04065 26.6189 4.02524 25.8609C4.01292 25.2446 4.3334 24.9364 4.94586 24.9364C8.6437 24.9364 12.3395 24.9364 16.0332 24.9364C16.2999 24.933 16.5598 25.0208 16.7697 25.1852C17.5458 25.7733 18.3241 26.3578 19.1048 26.9386C19.2034 27.0157 19.3035 27.0842 19.4052 27.1582C20.2958 26.4872 21.1671 25.8331 22.0368 25.176C22.2471 25.0117 22.5073 24.9247 22.7741 24.9295C23.7409 24.9364 24.7078 24.9464 25.6731 24.9295C26.17 24.9156 26.5128 25.0874 26.69 25.5604Z" fill="#F43127"/>
<path d="M30.1569 5.11019C29.9257 5.99074 29.6946 6.86975 29.4712 7.75184C28.6407 11.0645 27.8139 14.3771 26.9906 17.6898C26.9428 17.8839 26.8673 17.9463 26.6647 17.9463C19.1411 17.9407 11.617 17.9389 4.09243 17.9409C4.02617 17.9409 3.95915 17.9348 3.86131 17.9294C3.70723 17.3293 3.55316 16.7276 3.40447 16.1244C2.50312 12.5231 1.60434 8.92128 0.708125 5.31897C0.652361 5.13601 0.632994 4.9439 0.651118 4.7535C0.75589 4.10638 1.50239 3.82904 2.03781 4.23966C2.88523 4.89834 3.72264 5.57781 4.56313 6.24959L8.16314 9.13083C8.67468 9.5399 8.75017 9.78951 8.54294 10.4035C8.39909 10.8111 8.41191 11.2576 8.57892 11.6563C8.74593 12.0549 9.05519 12.3772 9.4466 12.5606C9.82869 12.7401 10.2631 12.7742 10.6685 12.6565C11.0739 12.5388 11.4226 12.2774 11.6491 11.9212C11.8797 11.5615 11.9693 11.1293 11.9008 10.7076C11.8323 10.2859 11.6104 9.90435 11.2778 9.6362C10.7717 9.21557 10.7016 8.89047 10.9935 8.30498C12.1748 5.9363 13.3576 3.56685 14.5419 1.19664C14.7222 0.833016 14.9679 0.571085 15.3893 0.570314C15.8108 0.569544 16.0619 0.827623 16.2429 1.19202C17.4242 3.56326 18.6067 5.93245 19.7906 8.29958C20.0841 8.88739 20.0132 9.22405 19.514 9.63312C19.1801 9.90046 18.9571 10.2821 18.8881 10.7042C18.8191 11.1264 18.9089 11.5591 19.1404 11.9189C19.3657 12.2758 19.7134 12.5385 20.1184 12.6576C20.5233 12.7767 20.9579 12.7441 21.3406 12.566C21.7282 12.3865 22.0361 12.0706 22.2057 11.6786C22.3752 11.2865 22.3944 10.8458 22.2596 10.4405C22.0432 9.77025 22.1056 9.55839 22.6448 9.12235C24.6247 7.5369 26.6049 5.95248 28.5853 4.36908C29.2455 3.84137 29.7709 3.95692 30.1569 4.70805V5.11019Z" fill="#F43127"/>
<path d="M4.10156 19.6963H26.69V19.9906C26.69 20.7016 26.69 21.4127 26.69 22.1238C26.69 22.8117 26.3503 23.1499 25.6616 23.1499H5.16932C4.4259 23.1499 4.10542 22.8248 4.10465 22.0714C4.10465 21.3796 4.10465 20.688 4.10465 19.9967L4.10156 19.6963Z" fill="#F43127"/>
</g>
<defs>
<clipPath id="clip0_1050_1388">
<rect width="29.5142" height="30.8316" fill="white" transform="translate(0.642578 0.573242)"/>
</clipPath>
</defs>
</svg>
