<svg width="30" height="32" viewBox="0 0 30 32" fill="none" xmlns="http://www.w3.org/2000/svg">
<g clip-path="url(#clip0_1050_1480)">
<path d="M26.0281 25.3119V27.5236C25.958 27.8076 25.9103 28.0994 25.8156 28.375C25.2236 30.0932 23.7286 31.1463 21.8896 31.1502C17.0983 31.1502 12.307 31.1502 7.51565 31.1502C7.4048 31.1502 7.29472 31.1502 7.18386 31.1417C5.36942 31.0501 3.76051 29.6721 3.4726 27.8815C3.35405 27.1387 3.39562 26.3696 3.38023 25.6121C3.36791 24.9963 3.68815 24.6884 4.30015 24.6884C7.99524 24.6884 11.6883 24.6884 15.3793 24.6884C15.6457 24.685 15.9054 24.7727 16.1152 24.937C16.8907 25.5246 17.6684 26.1087 18.4485 26.6891C18.547 26.7661 18.6471 26.8346 18.7487 26.9085C19.6386 26.238 20.5093 25.5844 21.3784 24.9278C21.5885 24.7636 21.8486 24.6766 22.1151 24.6814C23.0812 24.6884 24.0473 24.6984 25.0119 24.6814C25.5084 24.6676 25.851 24.8392 26.0281 25.3119Z" fill="#1D0605" fill-opacity="0.9"/>
<path d="M29.4923 4.87634C29.2614 5.75623 29.0304 6.63459 28.8072 7.51602C27.9773 10.8262 27.151 14.1364 26.3284 17.4466C26.2806 17.6406 26.2052 17.7029 26.0027 17.7029C18.4848 17.6973 10.9663 17.6955 3.44728 17.6975C3.38107 17.6975 3.3141 17.6914 3.21634 17.686C3.06237 17.0863 2.90841 16.4851 2.75984 15.8823C1.85916 12.2837 0.961047 8.6846 0.0654999 5.08496C0.00977727 4.90214 -0.00957539 4.71018 0.00853463 4.51992C0.113229 3.87328 0.859176 3.59615 1.39419 4.00645C2.24099 4.66464 3.07777 5.34361 3.91764 6.01489L7.51496 8.89398C8.02612 9.30275 8.10156 9.55217 7.89448 10.1657C7.75073 10.573 7.76355 11.0192 7.93043 11.4175C8.09731 11.8159 8.40635 12.138 8.79746 12.3212C9.17927 12.5005 9.61336 12.5346 10.0185 12.417C10.4236 12.2994 10.772 12.0382 10.9984 11.6822C11.2288 11.3228 11.3183 10.891 11.2499 10.4696C11.1814 10.0482 10.9597 9.66693 10.6273 9.39898C10.1215 8.97866 10.0515 8.6538 10.3432 8.06875C11.5236 5.70183 12.7055 3.33415 13.889 0.965702C14.0691 0.602351 14.3147 0.340615 14.7358 0.339845C15.1569 0.339076 15.4078 0.596963 15.5887 0.961083C16.7691 3.33056 17.9508 5.69798 19.1337 8.06336C19.427 8.65072 19.3562 8.98713 18.8574 9.3959C18.5237 9.66304 18.3009 10.0444 18.2319 10.4662C18.163 10.888 18.2528 11.3204 18.484 11.6799C18.7091 12.0366 19.0566 12.2991 19.4613 12.4181C19.866 12.5371 20.3002 12.5046 20.6826 12.3266C21.0699 12.1473 21.3776 11.8316 21.547 11.4398C21.7164 11.0481 21.7356 10.6077 21.601 10.2027C21.3846 9.53293 21.447 9.32123 21.9859 8.88552C23.9643 7.30124 25.9429 5.718 27.9219 4.13578C28.5816 3.60846 29.1066 3.72393 29.4923 4.4745V4.87634Z" fill="#1D0605" fill-opacity="0.9"/>
<path d="M3.45654 19.4521H26.0282V19.7462C26.0282 20.4568 26.0282 21.1673 26.0282 21.8778C26.0282 22.5653 25.6887 22.9032 25.0005 22.9032H4.5235C3.78064 22.9032 3.4604 22.5784 3.45963 21.8255C3.45963 21.1342 3.45963 20.4432 3.45963 19.7524L3.45654 19.4521Z" fill="#1D0605" fill-opacity="0.9"/>
</g>
<defs>
<clipPath id="clip0_1050_1480">
<rect width="29.4922" height="30.8086" fill="white" transform="translate(0 0.343262)"/>
</clipPath>
</defs>
</svg>
