<svg width="32" height="32" viewBox="0 0 32 32" fill="none" xmlns="http://www.w3.org/2000/svg">
<g id="Frame" clip-path="url(#clip0_1050_368)">
<path id="Vector" d="M27.0956 22.6611C28.2746 22.6292 29.279 22.9894 30.1196 23.7771C30.883 24.4916 31.3003 25.3862 31.4284 26.4273C31.4708 26.772 31.3198 26.9797 31.0187 27.0909C31.2732 29.2532 30.3698 30.764 28.597 31.1949C27.1897 31.5396 25.187 30.864 24.6374 28.5767C24.6195 28.5767 24.5933 28.5706 24.5848 28.5767C24.0868 29.136 23.728 29.0722 23.46 28.3724C23.3947 28.2 23.3446 28.0277 23.3039 27.9036C22.9858 27.938 22.6822 27.9992 22.3776 28.0001C19.752 28.0076 17.1264 28.0076 14.5008 28.0001C14.2463 28.0001 14.1242 28.0251 14.0767 28.3448C13.8392 29.9237 12.4438 31.0837 10.8534 31.0691C10.0844 31.0655 9.34189 30.7839 8.75884 30.2745C8.17578 29.7652 7.79033 29.0616 7.67159 28.2897C7.65887 28.2035 7.63936 28.1225 7.62579 28.0518C7.37131 28.0018 7.12532 27.9811 6.89799 27.9044C5.94032 27.583 5.40253 26.6462 5.48481 25.4982C5.54347 24.7143 5.73667 23.9469 6.05568 23.2307C6.37038 22.5163 6.73428 21.8251 7.09479 21.1313C7.12348 21.08 7.163 21.0357 7.21052 21.0018C7.25804 20.9678 7.31237 20.9449 7.36962 20.9348C9.8677 20.9253 12.3666 20.9279 14.8647 20.9297C14.8854 20.933 14.9055 20.9397 14.9241 20.9495C14.7604 22.4947 14.9911 23.3626 15.7198 23.8538C15.7486 23.4134 15.7783 22.992 15.8046 22.5663C15.9064 20.8282 16.0082 19.0897 16.1099 17.3505C16.1405 16.8334 15.9912 16.6524 15.4788 16.5964C14.7112 16.5102 13.9435 16.4292 13.1767 16.3378C12.9651 16.3168 12.7604 16.2504 12.5759 16.1431C12.3914 16.0359 12.2313 15.8901 12.1062 15.7155C11.9811 15.5409 11.8939 15.3413 11.8502 15.13C11.8064 14.9186 11.8073 14.7002 11.8526 14.4892C12.3248 12.1542 12.8035 9.82039 13.2887 7.4877C13.5033 6.45351 14.3617 5.83902 15.3609 5.96054C16.2618 6.06913 16.9353 6.89046 16.9573 7.87897C16.9677 8.03255 17.0273 8.17844 17.127 8.29438C18.0117 9.2941 19.1755 9.82326 20.386 10.2766C20.9595 10.4986 21.5708 10.6026 22.1842 10.5825C23.0087 10.5524 23.8349 10.5722 24.6611 10.5765C25.6951 10.5825 26.3008 11.1953 26.3067 12.2381C26.3067 12.5604 26.3143 12.8836 26.3016 13.2059C26.2898 13.592 26.1331 13.9589 25.8635 14.2314C25.594 14.5038 25.232 14.6611 24.852 14.6711C24.5127 14.6823 24.1793 14.6711 23.7984 14.6711C24.041 16.4938 24.427 18.1778 25.9632 19.3387C26.9488 20.0842 27.3322 21.1055 27.1405 22.3439C27.1236 22.4379 27.1125 22.5327 27.0956 22.6611ZM20.7176 13.1086C19.0789 12.9196 17.5241 12.2715 16.227 11.2367C16.1023 11.7822 15.9819 12.2795 15.875 12.7793C15.7902 13.193 15.8852 13.3697 16.2787 13.5214C17.0003 13.7983 17.7225 14.0732 18.4452 14.3461C19.3587 14.6909 19.7107 15.2131 19.614 16.1913C19.4045 18.3192 19.1721 20.4444 18.9507 22.5689C18.8879 23.1721 18.8286 23.7754 18.7675 24.3933H20.7185L20.7176 13.1086ZM27.8429 30.2193C29.4724 30.2262 30.5717 28.5224 29.9084 27.0245C29.8752 26.9286 29.815 26.8447 29.7351 26.7834C29.6553 26.7221 29.5595 26.6861 29.4596 26.6798C28.2034 26.5505 27.0192 26.766 25.9191 27.4149C25.8199 27.4655 25.7375 27.5446 25.6821 27.6424C25.6268 27.7401 25.6009 27.8522 25.6078 27.9648C25.6175 28.5623 25.8564 29.1324 26.2738 29.5535C26.6911 29.9747 27.2539 30.2136 27.842 30.2193H27.8429ZM8.69712 28.0242C8.68609 29.1282 9.78457 30.0926 10.9814 30.0409C12.0977 29.9944 13.1394 28.9895 13.0554 28.0242H8.69712Z" fill="#60340B"/>
<path id="Vector_2" d="M5.52333 7.50461C6.6662 7.50461 7.80907 7.50461 8.95194 7.50461C9.96983 7.50461 10.6001 8.14495 10.6009 9.17139C10.6009 10.9881 10.6009 12.8049 10.6009 14.6216C10.6009 15.6317 9.96644 16.278 8.97654 16.2789C6.66931 16.2789 4.36208 16.2789 2.05485 16.2789C1.08361 16.2789 0.443181 15.6282 0.438092 14.6466C0.434699 12.808 0.434699 10.9695 0.438092 9.13089C0.438092 8.16564 1.08361 7.50978 2.0311 7.50547C3.19489 7.5003 4.35869 7.50461 5.52333 7.50461Z" fill="#60340B"/>
<path id="Vector_3" d="M15.1539 19.8935H13.6814C11.5124 19.8935 9.34261 19.8935 7.17365 19.8987C7.08057 19.9064 6.98711 19.8896 6.90237 19.8497C6.81763 19.8098 6.74451 19.7483 6.69014 19.6712C6.29284 19.1625 6.06261 18.5401 6.0319 17.8915C6.0107 17.4485 6.19562 17.2451 6.62568 17.2451C9.27107 17.2451 11.9168 17.2451 14.5627 17.2451C14.9249 17.2451 15.1395 17.4063 15.1489 17.7355C15.1675 18.4388 15.1539 19.1463 15.1539 19.8935Z" fill="#60340B"/>
<path id="Vector_4" d="M14.1602 2.84599C14.1653 2.16087 14.4379 1.50585 14.9181 1.02478C15.3982 0.543723 16.0467 0.275967 16.721 0.280326C17.0552 0.283144 17.3856 0.352813 17.6932 0.485356C18.0009 0.617899 18.2799 0.810719 18.5142 1.05281C18.7486 1.29489 18.9337 1.58151 19.059 1.89628C19.1843 2.21106 19.2474 2.54782 19.2446 2.88736C19.2359 3.56723 18.9639 4.21626 18.4876 4.69389C18.0113 5.17151 17.369 5.43929 16.6998 5.43924C16.3654 5.43856 16.0344 5.37092 15.7258 5.2402C15.4171 5.10948 15.1369 4.91823 14.901 4.67739C14.6651 4.43656 14.4783 4.15085 14.3512 3.8366C14.2241 3.52236 14.1592 3.18574 14.1602 2.84599Z" fill="#60340B"/>
</g>
<defs>
<clipPath id="clip0_1050_368">
<rect width="31" height="31" fill="white" transform="translate(0.435547 0.27832)"/>
</clipPath>
</defs>
</svg>
