<svg width="96" height="96" viewBox="0 0 96 96" fill="none" xmlns="http://www.w3.org/2000/svg">
<g id="Group 258">
<circle id="Ellipse 32" cx="48" cy="48.3867" r="47.4141" fill="#1D0605" fill-opacity="0.2"/>
<path id="Vector" d="M61.2015 17.3477C61.9022 17.644 62.6594 17.8335 63.2937 18.2561C64.9712 19.3735 65.8743 21.0754 65.9827 23.2777C65.9913 23.4591 65.9971 23.6405 65.9971 23.8234C65.9971 40.1902 65.9957 56.5554 66 72.9222C66 75.416 65.0926 77.3252 63.1781 78.6077C62.2562 79.2247 61.239 79.4255 60.1727 79.4255C52.058 79.4174 43.9434 79.4239 35.8302 79.4158C35.3823 79.4158 34.9286 79.3802 34.4865 79.2943C32.0821 78.8328 30.1532 76.3811 30.0275 73.6477C30.0145 73.3659 30.0072 73.0825 30.0072 72.7991C30.0043 56.5149 30.0101 40.2291 30 23.9433C29.9986 21.1661 31.0418 19.1306 33.2771 17.9096C33.7539 17.6489 34.2914 17.5306 34.8014 17.3477C43.601 17.3477 52.4005 17.3477 61.2015 17.3477ZM60.4096 60.7544V23.5773H35.5774V60.756H60.4082L60.4096 60.7544ZM48.0051 73.259V73.2153C48.5108 73.2153 49.0165 73.2396 49.5208 73.2104C51.1362 73.1181 52.1534 71.9052 52.1433 70.1094C52.1346 68.4074 50.9975 67.0779 49.4615 67.0261C48.4718 66.9921 47.4777 66.9873 46.4879 67.0326C45.2019 67.0925 43.968 68.4625 43.8697 69.8729C43.7599 71.4486 44.6673 72.838 46.0689 73.1214C46.7003 73.2493 47.3592 73.2169 48.0051 73.259Z" fill="#FAE2CB"/>
</g>
</svg>
