<svg width="31" height="34" viewBox="0 0 31 34" fill="none" xmlns="http://www.w3.org/2000/svg">
<g id="Frame" clip-path="url(#clip0_1050_403)">
<path id="Vector" d="M16.5342 0.27832C16.8247 0.34084 17.1199 0.38918 17.4058 0.467812C19.4921 1.04145 20.8414 2.36596 21.6124 4.33049C19.0989 4.80422 17.2319 6.11648 15.9338 8.25504C14.6391 6.11713 12.7727 4.80293 10.2666 4.33049C10.8237 2.80617 11.7885 1.63699 13.2651 0.933809C13.9102 0.627012 14.6425 0.49166 15.3348 0.27832C15.7346 0.27832 16.1344 0.27832 16.5342 0.27832Z" fill="#60340B"/>
<path id="Vector_2" d="M9.66978 33.2781C9.51719 33.1769 9.34461 33.0944 9.216 32.97C8.84285 32.6085 8.83219 32.0522 9.20467 31.6623C9.59582 31.253 10.005 30.8579 10.4301 30.4822C10.5087 30.4125 10.7159 30.4229 10.8379 30.4654C12.1279 30.9133 13.4533 31.1905 14.8206 31.2968C16.9436 31.4618 18.9999 31.1718 20.9942 30.4686C21.2594 30.3752 21.4134 30.4138 21.5913 30.6053C21.8505 30.8843 22.1364 31.1396 22.4109 31.4051C23.1818 32.1496 23.1139 32.7496 22.1977 33.2788H9.66978V33.2781Z" fill="#60340B"/>
<path id="Vector_3" d="M28.1962 0.27832C28.2595 0.316348 28.3208 0.356953 28.3861 0.391758C28.9638 0.699199 29.1324 1.39787 28.6813 1.8658C27.7751 2.80682 26.8329 3.71561 25.8987 4.63084C25.8467 4.68176 25.7221 4.6998 25.6415 4.68369C25.0577 4.56639 24.476 4.43877 23.8957 4.30728C23.809 4.2873 23.7311 4.23059 23.6484 4.19062C23.6924 4.1107 23.7197 4.01596 23.7824 3.95408C24.9125 2.83453 26.0446 1.71627 27.1847 0.605098C27.32 0.472969 27.5026 0.385957 27.6631 0.27832H28.1962V0.27832Z" fill="#60340B"/>
<path id="Vector_4" d="M3.33594 19.6895H19.0989C19.6753 20.9366 20.6461 21.6669 22.1001 21.5979C23.3908 21.5367 24.2497 20.8283 24.7541 19.6907H28.5163C27.7114 23.7687 23.4961 29.0899 16.5128 29.3929C9.4876 29.6977 4.4354 24.673 3.33594 19.6895Z" fill="#60340B"/>
<path id="Vector_5" d="M28.899 11.9445C28.2053 11.9445 27.509 11.9381 26.8133 11.9471C26.3375 11.9529 25.8531 11.9323 25.3873 12.0083C23.9674 12.2391 22.9499 13.4134 22.9352 14.812C22.9212 16.1004 22.9385 17.3889 22.9285 18.6766C22.9225 19.4372 22.1649 19.9025 21.4899 19.5712C21.1068 19.383 20.9322 19.0666 20.9322 18.6547C20.9322 17.4417 20.9335 16.2287 20.9322 15.015C20.9302 13.173 19.6628 11.9477 17.7597 11.9451C17.4959 11.9451 17.232 11.9451 16.9248 11.9451C17.0048 9.87878 17.8544 8.23265 19.6228 7.12276C21.7085 5.81437 23.8887 5.78536 26.0383 6.99192C28.0514 8.12179 28.9876 10.2752 28.8983 11.9451L28.899 11.9445Z" fill="#60340B"/>
<path id="Vector_6" d="M18.9335 17.7447H18.5137C13.0717 17.7447 7.62902 17.7447 2.18702 17.7447C1.29546 17.7447 0.938963 17.3999 0.940962 16.5343C0.941628 16.2017 0.91764 15.864 0.965616 15.5372C1.11088 14.5453 1.94247 13.8801 3.01528 13.8788C6.20306 13.8756 9.39016 13.8775 12.5779 13.8775C14.3104 13.8775 16.0429 13.8775 17.7761 13.8775C18.5377 13.8775 18.9315 14.2533 18.9328 14.9803C18.9348 15.8904 18.9328 16.8011 18.9328 17.7441L18.9335 17.7447Z" fill="#60340B"/>
<path id="Vector_7" d="M14.952 11.9315H2.93652C2.98916 10.0424 3.73147 8.48131 5.28937 7.35532C7.2804 5.91608 9.462 5.71112 11.6769 6.80102C13.7965 7.84387 14.8207 9.6144 14.952 11.9315Z" fill="#60340B"/>
<path id="Vector_8" d="M24.9338 17.7427C24.9338 16.725 24.9191 15.7485 24.9398 14.7733C24.9504 14.2783 25.3829 13.889 25.9033 13.8832C26.9468 13.871 27.9916 13.862 29.0351 13.8871C30.0379 13.911 30.8649 14.7121 30.9208 15.6808C30.9428 16.056 30.9382 16.433 30.9242 16.8081C30.9048 17.3122 30.5124 17.7324 29.9993 17.7369C28.3241 17.753 26.6489 17.7433 24.9338 17.7433V17.7427Z" fill="#60340B"/>
</g>
<defs>
<clipPath id="clip0_1050_403">
<rect width="30" height="33" fill="white" transform="translate(0.935547 0.27832)"/>
</clipPath>
</defs>
</svg>
