<svg width="39" height="46" viewBox="0 0 39 46" fill="none" xmlns="http://www.w3.org/2000/svg">
<g clip-path="url(#clip0_1050_1524)">
<path d="M17.8751 7.12945V3.84952C16.7926 3.84952 15.7305 3.86294 14.6697 3.8455C13.4786 3.82672 12.6959 2.69317 13.1436 1.6401C13.4108 1.01363 13.91 0.646066 14.6005 0.643383C17.8846 0.629968 21.1688 0.628626 24.4515 0.643383C25.3333 0.647407 26.0183 1.37986 26.0224 2.23304C26.0265 3.10768 25.3306 3.82672 24.419 3.84282C23.3541 3.8616 22.2892 3.84684 21.1864 3.84684V7.1375C25.2722 7.51982 28.905 8.99813 32.1376 11.6663C32.4876 11.2988 32.8267 10.9325 33.178 10.5771C33.6271 10.1209 34.0801 9.67021 34.5386 9.2235C35.2712 8.50983 36.2655 8.47898 36.9329 9.14301C37.5989 9.8057 37.561 10.7796 36.8312 11.5094C36.1529 12.1882 35.4638 12.8549 34.7801 13.5297C34.6621 13.6464 34.5508 13.7698 34.4193 13.908C37.8825 18.1336 39.4384 22.9388 38.8958 28.3423C38.4658 32.623 36.7091 36.3429 33.7654 39.5142C28.0938 45.6233 18.6755 47.3726 11.1237 43.776C3.31151 40.0574 -0.896423 31.9214 0.161664 23.8644C1.28758 15.291 8.25332 8.0336 17.8751 7.12945ZM3.27081 26.322C3.26403 35.1718 10.5146 42.3903 19.4365 42.4158C28.4641 42.4426 35.7581 35.2697 35.7771 26.3448C35.7961 17.5246 28.498 10.2819 19.5871 10.2766C10.573 10.2699 3.27759 17.4441 3.27081 26.322Z" fill="#FAE2CB"/>
<path d="M32.5254 26.3743C32.5281 33.4158 26.6937 39.1949 19.5706 39.2029C12.3472 39.2109 6.51546 33.4533 6.51953 26.318C6.5236 19.2685 12.3526 13.4961 19.473 13.4907C26.7019 13.4854 32.5213 19.2282 32.5241 26.373L32.5254 26.3743ZM17.898 22.3257C17.898 23.631 17.8573 24.9376 17.9211 26.2388C17.9414 26.6694 18.1219 27.1886 18.4149 27.4918C19.9912 29.1244 21.6149 30.714 23.2536 32.2876C23.5113 32.5344 23.9169 32.7007 24.2778 32.7584C24.9506 32.8657 25.5963 32.4526 25.8812 31.8476C26.1755 31.2224 26.0575 30.5383 25.5217 30.0044C24.1747 28.6629 22.8086 27.3402 21.4725 25.9893C21.2975 25.8122 21.1659 25.5091 21.1632 25.2636C21.1401 23.0394 21.1496 20.8139 21.1496 18.5897C21.1496 17.4414 20.5026 16.7009 19.5109 16.7089C18.5342 16.717 17.9008 17.4441 17.8994 18.5642C17.898 19.8185 17.8994 21.0728 17.8994 22.3271L17.898 22.3257Z" fill="#FAE2CB"/>
</g>
<defs>
<clipPath id="clip0_1050_1524">
<rect width="39" height="45" fill="white" transform="translate(0 0.632812)"/>
</clipPath>
</defs>
</svg>
