<svg width="24" height="25" viewBox="0 0 24 25" fill="none" xmlns="http://www.w3.org/2000/svg">
<g id="whatsapp-brands">
<path id="Vector" d="M19.5047 5.48857C17.5006 3.51982 14.8316 2.43701 11.9951 2.43701C6.14055 2.43701 1.37652 7.10576 1.37652 12.8433C1.37652 14.6761 1.86441 16.4667 2.79234 18.0464L1.28564 23.437L6.91543 21.9886C8.46517 22.8183 10.211 23.2542 11.9904 23.2542H11.9951C17.845 23.2542 22.7142 18.5854 22.7142 12.8479C22.7142 10.0683 21.5089 7.45732 19.5047 5.48857ZM11.9951 21.5011C10.4071 21.5011 8.85261 21.0839 7.49897 20.2964L7.1785 20.1089L3.83985 20.9667L4.72952 17.7745L4.51906 17.4464C3.63418 16.0683 3.17021 14.4792 3.17021 12.8433C3.17021 8.07607 7.13067 4.19482 11.9999 4.19482C14.358 4.19482 16.5726 5.09482 18.2372 6.73076C19.9017 8.3667 20.9253 10.537 20.9205 12.8479C20.9205 17.6198 16.8596 21.5011 11.9951 21.5011ZM16.8357 15.0229C16.5726 14.8917 15.2668 14.2636 15.0229 14.1792C14.7789 14.0901 14.602 14.0479 14.425 14.3104C14.248 14.5729 13.741 15.1542 13.5832 15.3323C13.4301 15.5058 13.2723 15.5292 13.0092 15.3979C11.4499 14.6339 10.4263 14.0339 9.39789 12.3042C9.12525 11.8448 9.67053 11.8776 10.1775 10.8839C10.2636 10.7104 10.2206 10.5604 10.1536 10.4292C10.0867 10.2979 9.55573 9.01826 9.33571 8.49795C9.12047 7.9917 8.90044 8.06201 8.73781 8.05264C8.58475 8.04326 8.40777 8.04326 8.2308 8.04326C8.05382 8.04326 7.76683 8.10889 7.52289 8.3667C7.27895 8.6292 6.59496 9.25732 6.59496 10.537C6.59496 11.8167 7.54681 13.0542 7.67595 13.2276C7.80988 13.4011 9.54617 16.0261 12.2104 17.1558C13.8941 17.8683 14.5541 17.9292 15.396 17.8073C15.9078 17.7323 16.9649 17.1792 17.1849 16.5698C17.4049 15.9604 17.4049 15.4401 17.3379 15.3323C17.2758 15.2151 17.0988 15.1495 16.8357 15.0229Z" fill="#34201F"/>
</g>
</svg>
