<svg width="31" height="31" viewBox="0 0 31 31" fill="none" xmlns="http://www.w3.org/2000/svg">
<g id="Frame" clip-path="url(#clip0_1050_418)">
<path id="Vector" d="M15.2927 0.77832H17.1092C17.475 0.823604 17.8432 0.860321 18.2077 0.914172C22.1404 1.49797 25.3759 3.32279 27.8322 6.45228C30.2297 9.50833 31.2267 13.0074 30.8622 16.8725C30.6138 19.5051 29.6952 21.9076 28.1013 24.02C25.2964 27.7394 21.5459 29.7527 16.8988 30.0207C14.2958 30.1713 11.8175 29.6168 9.48845 28.4297C9.30986 28.3391 9.15573 28.3232 8.96246 28.3856C6.52087 29.1689 4.07683 29.94 1.63646 30.7257C1.35145 30.8175 1.12637 30.8028 0.935547 30.5629V30.2692C0.973467 30.1811 1.01873 30.0954 1.04931 30.0048C1.82607 27.7161 2.59916 25.4263 3.38325 23.14C3.46276 22.9087 3.45298 22.7251 3.32943 22.5097C2.40588 20.8991 1.83708 19.1636 1.5961 17.3278C1.26215 14.7698 1.53738 12.2707 2.56735 9.89998C4.69212 5.0142 8.39732 2.05851 13.6193 1.01453C14.171 0.904381 14.7349 0.855425 15.2927 0.77832ZM5.55328 26.2585C5.68662 26.2218 5.76857 26.2022 5.84931 26.1765C6.9649 25.8228 8.08172 25.4752 9.19243 25.1105C9.48356 25.015 9.72209 25.0297 9.98998 25.1998C11.4444 26.1239 13.0322 26.6844 14.7423 26.8998C16.8548 27.1666 18.8915 26.8729 20.8401 26.0321C22.8193 25.179 24.4463 23.8682 25.705 22.1132C26.9148 20.4267 27.6316 18.5468 27.8224 16.4821C28.0622 13.8764 27.4762 11.4543 26.067 9.25009C24.4597 6.73622 22.2004 5.07662 19.3331 4.26029C17.1545 3.63978 14.9722 3.67527 12.8108 4.33372C10.6995 4.97626 8.90252 6.12672 7.43952 7.78632C5.78081 9.66866 4.81078 11.8643 4.58692 14.3586C4.33861 17.1319 5.01139 19.6862 6.61139 21.9773C6.80466 22.2539 6.83891 22.5073 6.7276 22.823C6.33249 23.9441 5.95695 25.0725 5.55451 26.2573L5.55328 26.2585Z" fill="#60340B"/>
<path id="Vector_2" d="M20.2241 22.4415C19.38 22.439 18.5666 22.2016 17.7531 21.9556C14.4956 20.9716 12.1911 18.7894 10.3012 16.0699C9.63816 15.1152 9.06201 14.1227 8.88464 12.9563C8.70972 11.801 8.89443 10.7056 9.54397 9.70688C9.97332 9.04475 10.6192 8.77427 11.3531 8.64699C11.5733 8.60905 11.7972 8.58334 12.0198 8.55642C12.4773 8.50012 12.8516 8.66902 13.0375 9.08147C13.4975 10.1034 13.9317 11.1364 14.3525 12.1755C14.5323 12.6185 14.2853 12.9979 14.0467 13.3431C13.8363 13.6466 13.5697 13.9109 13.347 14.2059C13.2944 14.2757 13.2687 14.4372 13.3115 14.4984C14.4944 16.1764 15.9183 17.5765 17.8351 18.4087C18.043 18.4993 18.1642 18.4712 18.3012 18.2912C18.596 17.9033 18.9152 17.5324 19.2198 17.1518C19.632 16.6365 19.9623 16.5484 20.5739 16.8201C21.1085 17.0576 21.6382 17.3048 22.1666 17.5569C22.5801 17.754 22.9862 17.9669 23.3972 18.1676C23.7201 18.3255 23.8596 18.5789 23.8755 18.9387C23.9794 21.1551 22.169 22.2713 20.618 22.4182C20.492 22.4304 20.3648 22.4341 20.2229 22.4427L20.2241 22.4415Z" fill="#60340B"/>
</g>
<defs>
<clipPath id="clip0_1050_418">
<rect width="30" height="30" fill="white" transform="translate(0.935547 0.77832)"/>
</clipPath>
</defs>
</svg>
