<svg width="29" height="32" viewBox="0 0 29 32" fill="none" xmlns="http://www.w3.org/2000/svg">
<g clip-path="url(#clip0_1050_1345)">
<path d="M15.2864 0.192216C15.9446 0.291566 16.6158 0.338586 17.2595 0.495573C22.9551 1.90163 26.4745 5.46986 27.8366 11.1502C27.9311 11.5838 27.9972 12.0231 28.0344 12.4653C28.0801 12.896 28.09 13.3298 28.1196 13.8357C27.988 13.7393 27.8499 13.6519 27.7065 13.574C27.3016 13.3935 26.8968 13.21 26.4806 13.0629C26.3018 12.9999 26.2257 12.9347 26.2074 12.7398C26.028 10.6797 25.2986 8.70507 24.095 7.02077C22.7401 5.08844 20.8301 3.61 18.6163 2.77985C16.9091 2.12364 15.0698 1.88137 13.2501 2.07303C10.9478 2.29232 8.7642 3.19385 6.98074 4.66142C5.06609 6.19791 3.68694 8.29753 3.03983 10.661C2.84655 11.3436 2.78035 12.0663 2.64566 12.7686C2.62816 12.8604 2.56957 12.9863 2.49348 13.0181C1.92429 13.2631 1.34674 13.4883 0.719727 13.7409C0.795821 13.0159 0.819407 12.2506 0.963985 11.5082C1.89005 6.74093 4.5853 3.3403 9.00864 1.31539C10.3672 0.703556 11.825 0.339823 13.3125 0.241511C13.402 0.229522 13.4907 0.212303 13.5781 0.189941L15.2864 0.192216Z" fill="#60340B"/>
<path d="M17.0025 27.55C18.045 27.55 19.0791 27.5887 20.1087 27.5394C21.2341 27.4855 22.2089 26.6702 22.4531 25.7192C21.9966 25.698 21.5126 25.7488 21.0675 25.6434C19.8134 25.34 19.0129 24.3207 19 23.0254C18.9779 20.5629 18.965 18.1004 19 15.6387C19.0327 13.4644 21.2828 12.2259 23.1509 13.3286C24.0199 13.8413 24.4445 14.6535 24.4521 15.6485C24.4658 18.7579 24.4826 21.8673 24.446 24.9768C24.4179 27.3718 22.4356 29.317 20.0326 29.3754C19.1012 29.3982 18.1698 29.386 17.2384 29.3754C17.0596 29.3754 16.9767 29.4331 16.9013 29.5931C16.3481 30.7822 15.107 31.4018 13.8484 31.1296C12.6347 30.8672 11.7482 29.7895 11.7041 28.5238C11.6615 27.2823 12.5465 26.1447 13.8051 25.8239C14.9944 25.5205 16.3162 26.1386 16.8625 27.2519C16.9112 27.3528 16.9561 27.4514 17.0025 27.55Z" fill="#60340B"/>
<path d="M9.87847 19.3577C9.87847 20.5484 9.88455 21.7391 9.87847 22.929C9.87086 24.1667 9.1434 25.2224 8.07352 25.572C6.23585 26.1711 4.45297 24.9607 4.42101 23.0336C4.38245 20.5628 4.38245 18.0912 4.42101 15.6188C4.45905 13.459 6.69545 12.2319 8.559 13.3217C9.46299 13.8526 9.86781 14.6944 9.87542 15.7258C9.88532 16.9369 9.87847 18.1473 9.87847 19.3577Z" fill="#60340B"/>
<path d="M2.62061 14.915V23.7548C1.89924 23.5122 1.35288 23.0556 1.05459 22.3655C0.888626 21.9777 0.796013 21.5627 0.781418 21.1414C0.746414 19.9326 0.762393 18.7214 0.770763 17.5118C0.77609 16.2801 1.53246 15.2184 2.62061 14.915Z" fill="#60340B"/>
<path d="M26.2544 23.7397V14.8999C26.8099 15.0776 27.2896 15.436 27.6165 15.9177C27.9401 16.3742 28.1108 16.921 28.1042 17.48C28.1042 18.7101 28.1141 19.9402 28.1042 21.1703C28.0913 22.386 27.3342 23.4273 26.2544 23.7397Z" fill="#60340B"/>
</g>
<defs>
<clipPath id="clip0_1050_1345">
<rect width="27.3953" height="31" fill="white" transform="translate(0.726562 0.192383)"/>
</clipPath>
</defs>
</svg>
