<svg width="32" height="32" viewBox="0 0 32 32" fill="none" xmlns="http://www.w3.org/2000/svg">
<g clip-path="url(#clip0_1050_1356)">
<path d="M27.5848 22.5751C28.7639 22.5432 29.7682 22.9035 30.6088 23.6912C31.3723 24.4057 31.7896 25.3002 31.9177 26.3413C31.9601 26.6861 31.8091 26.8938 31.508 27.0049C31.7624 29.1673 30.8591 30.6781 29.0862 31.109C27.679 31.4537 25.6763 30.778 25.1266 28.4907C25.1088 28.4907 25.0825 28.4847 25.074 28.4907C24.5761 29.0501 24.2173 28.9863 23.9493 28.2865C23.8839 28.1141 23.8339 27.9417 23.7932 27.8176C23.4751 27.8521 23.1714 27.9133 22.8669 27.9142C20.2413 27.9216 17.6157 27.9216 14.9901 27.9142C14.7356 27.9142 14.6135 27.9392 14.566 28.2589C14.3284 29.8378 12.9331 30.9978 11.3426 30.9831C10.5737 30.9796 9.83115 30.6979 9.24809 30.1886C8.66504 29.6793 8.27959 28.9756 8.16085 28.2037C8.14813 28.1176 8.12862 28.0365 8.11505 27.9659C7.86057 27.9159 7.61458 27.8952 7.38725 27.8185C6.42958 27.497 5.89179 26.5602 5.97407 25.4123C6.03272 24.6284 6.22593 23.861 6.54494 23.1448C6.85964 22.4303 7.22354 21.7392 7.58404 21.0454C7.61274 20.9941 7.65226 20.9498 7.69978 20.9158C7.74729 20.8819 7.80163 20.859 7.85887 20.8489C10.357 20.8394 12.8559 20.842 15.354 20.8437C15.3747 20.847 15.3947 20.8537 15.4134 20.8635C15.2496 22.4088 15.4804 23.2767 16.209 23.7679C16.2378 23.3275 16.2675 22.9061 16.2938 22.4803C16.3956 20.7423 16.4974 19.0037 16.5992 17.2645C16.6297 16.7474 16.4804 16.5665 15.9681 16.5104C15.2004 16.4243 14.4328 16.3432 13.666 16.2519C13.4544 16.2308 13.2496 16.1645 13.0651 16.0572C12.8806 15.9499 12.7206 15.8042 12.5955 15.6296C12.4704 15.4549 12.3831 15.2554 12.3394 15.044C12.2957 14.8327 12.2965 14.6143 12.3419 14.4033C12.814 12.0683 13.2927 9.73445 13.7779 7.40177C13.9925 6.36757 14.851 5.75309 15.8502 5.87461C16.751 5.9832 17.4245 6.80452 17.4466 7.79304C17.457 7.94661 17.5166 8.0925 17.6162 8.20844C18.501 9.20816 19.6648 9.73732 20.8752 10.1906C21.4488 10.4126 22.06 10.5166 22.6735 10.4966C23.498 10.4664 24.3242 10.4863 25.1504 10.4906C26.1844 10.4966 26.79 11.1094 26.796 12.1522C26.796 12.4745 26.8036 12.7977 26.7909 13.12C26.7791 13.5061 26.6223 13.873 26.3528 14.1454C26.0832 14.4179 25.7213 14.5752 25.3412 14.5851C25.0019 14.5963 24.6686 14.5851 24.2877 14.5851C24.5303 16.4079 24.9163 18.0919 26.4524 19.2528C27.4381 19.9983 27.8215 21.0195 27.6298 22.258C27.6128 22.3519 27.6018 22.4467 27.5848 22.5751ZM21.2069 13.0226C19.5681 12.8337 18.0134 12.1856 16.7163 11.1507C16.5916 11.6963 16.4711 12.1935 16.3642 12.6934C16.2794 13.1071 16.3744 13.2838 16.768 13.4354C17.4896 13.7124 18.2117 13.9873 18.9344 14.2602C19.848 14.6049 20.2 15.1272 20.1033 16.1054C19.8938 18.2332 19.6614 20.3585 19.44 22.4829C19.3772 23.0862 19.3178 23.6895 19.2568 24.3074H21.2077L21.2069 13.0226ZM28.3321 30.1334C29.9616 30.1403 31.0609 28.4364 30.3976 26.9386C30.3645 26.8427 30.3042 26.7588 30.2244 26.6975C30.1446 26.6362 30.0488 26.6001 29.9489 26.5938C28.6926 26.4646 27.5085 26.68 26.4083 27.329C26.3091 27.3796 26.2267 27.4587 26.1714 27.5564C26.1161 27.6542 26.0902 27.7663 26.097 27.8788C26.1067 28.4764 26.3457 29.0464 26.7631 29.4676C27.1804 29.8887 27.7431 30.1276 28.3313 30.1334H28.3321ZM9.18638 27.9383C9.17535 29.0423 10.2738 30.0067 11.4707 29.955C12.587 29.9084 13.6286 28.9035 13.5447 27.9383H9.18638Z" fill="#60340B"/>
<path d="M6.0121 7.41868C7.15497 7.41868 8.29784 7.41868 9.44071 7.41868C10.4586 7.41868 11.0888 8.05902 11.0897 9.08545C11.0897 10.9022 11.0897 12.7189 11.0897 14.5357C11.0897 15.5457 10.4552 16.1921 9.46531 16.193C7.15808 16.193 4.85085 16.193 2.54362 16.193C1.57238 16.193 0.931951 15.5423 0.926861 14.5607C0.923468 12.7221 0.923468 10.8835 0.926861 9.04495C0.926861 8.0797 1.57238 7.42385 2.51987 7.41954C3.68366 7.41437 4.84746 7.41868 6.0121 7.41868Z" fill="#60340B"/>
<path d="M15.6432 19.8076H14.1706C12.0017 19.8076 9.83187 19.8076 7.6629 19.8128C7.56983 19.8205 7.47637 19.8036 7.39163 19.7638C7.30689 19.7239 7.23377 19.6624 7.1794 19.5852C6.78209 19.0766 6.55187 18.4541 6.52116 17.8056C6.49996 17.3626 6.68487 17.1592 7.11493 17.1592C9.76033 17.1592 12.406 17.1592 15.052 17.1592C15.4142 17.1592 15.6288 17.3203 15.6381 17.6496C15.6568 18.3528 15.6432 19.0604 15.6432 19.8076Z" fill="#60340B"/>
<path d="M14.6489 2.75957C14.6541 2.07445 14.9267 1.41942 15.4069 0.938359C15.887 0.457298 16.5355 0.189541 17.2098 0.1939C17.544 0.196718 17.8743 0.266388 18.182 0.39893C18.4897 0.531473 18.7687 0.724293 19.003 0.966381C19.2373 1.20847 19.4224 1.49508 19.5478 1.80986C19.6731 2.12463 19.7361 2.4614 19.7333 2.80093C19.7246 3.48081 19.4527 4.12983 18.9764 4.60746C18.5001 5.08509 17.8578 5.35287 17.1886 5.35281C16.8542 5.35213 16.5232 5.2845 16.2146 5.15378C15.9059 5.02306 15.6256 4.83181 15.3898 4.59097C15.1539 4.35013 14.9671 4.06442 14.84 3.75018C14.7128 3.43593 14.6479 3.09931 14.6489 2.75957Z" fill="#60340B"/>
</g>
<defs>
<clipPath id="clip0_1050_1356">
<rect width="31" height="31" fill="white" transform="translate(0.924316 0.192383)"/>
</clipPath>
</defs>
</svg>
