<svg width="32" height="32" viewBox="0 0 32 32" fill="none" xmlns="http://www.w3.org/2000/svg">
<g clip-path="url(#clip0_1050_1336)">
<path d="M14.4246 0.192383H18.4212C18.6097 0.215942 18.7974 0.241125 18.9858 0.262247C21.8019 0.577446 24.3368 1.58722 26.5419 3.37768C29.3173 5.63525 31.0462 8.52648 31.6922 12.0522C31.7921 12.5956 31.8506 13.1464 31.9286 13.694V14.8443C31.6702 15.4942 31.1827 15.7013 30.4994 15.7005C21.1153 15.6875 11.7315 15.6845 2.34797 15.6916C2.24723 15.6916 2.14567 15.6916 2.04492 15.6916C1.38844 15.6688 0.92614 15.2042 0.930202 14.5478C0.929489 14.0735 0.952813 13.5996 1.00008 13.1277C1.30638 10.3226 2.31385 7.79616 4.09398 5.60032C6.35266 2.81309 9.25158 1.07705 12.7875 0.428782C13.3278 0.328861 13.8762 0.27037 14.4246 0.192383ZM11.9945 8.49804C11.9945 8.29658 12.0059 8.09186 11.9945 7.89445C11.9531 7.30224 11.5119 6.86681 10.9464 6.84569C10.3484 6.82375 9.86337 7.20881 9.80894 7.81565C9.76628 8.26632 9.76628 8.72001 9.80894 9.17068C9.83218 9.45011 9.9646 9.70912 10.1775 9.89159C10.3904 10.0741 10.6667 10.1653 10.9464 10.1455C11.533 10.1138 11.9677 9.67435 12.0026 9.06914C12.0075 8.88067 11.9945 8.68895 11.9945 8.49804ZM20.8505 8.49804C20.8505 8.70926 20.8342 8.9221 20.8505 9.13169C20.871 9.40581 20.9937 9.66225 21.1942 9.85028C21.3948 10.0383 21.6586 10.1443 21.9335 10.1472C22.2041 10.1592 22.469 10.0669 22.6734 9.88923C22.8778 9.71159 23.0062 9.4622 23.032 9.19262C23.076 8.73333 23.076 8.27088 23.032 7.81159C22.9743 7.20638 22.486 6.82213 21.888 6.84569C21.3193 6.86843 20.8838 7.30549 20.8432 7.90176C20.8415 8.09836 20.8529 8.30064 20.8529 8.50129L20.8505 8.49804ZM17.512 8.51348C17.512 8.26977 17.5307 8.02606 17.512 7.78966C17.4807 7.52752 17.3542 7.28602 17.1565 7.11108C16.9587 6.93613 16.7036 6.83995 16.4395 6.84081C15.8749 6.83594 15.3776 7.247 15.3411 7.7921C15.3118 8.25414 15.3118 8.71758 15.3411 9.17962C15.3744 9.72716 15.87 10.148 16.4282 10.1472C16.6974 10.1491 16.9578 10.0509 17.1587 9.87163C17.3596 9.69238 17.4867 9.44488 17.5153 9.17718C17.5323 8.96028 17.5145 8.73769 17.5145 8.51429L17.512 8.51348Z" fill="#60340B"/>
<path d="M31.9244 23.1996V26.224C31.8294 26.6132 31.7619 27.0129 31.6336 27.3898C30.8211 29.7416 28.7769 31.1868 26.2607 31.1884C19.7018 31.1884 13.1424 31.1884 6.58251 31.1884C6.43139 31.1884 6.27946 31.1884 6.12834 31.1771C3.64623 31.0479 1.4436 29.1648 1.05199 26.7139C0.889495 25.6976 0.945556 24.6448 0.925244 23.6074C0.908995 22.765 1.34367 22.3385 2.18458 22.3385C7.2398 22.3385 12.2956 22.3371 17.3519 22.3344C17.7168 22.3292 18.0724 22.4493 18.3593 22.6748C19.4212 23.4782 20.488 24.2744 21.554 25.0729C21.6889 25.1737 21.8262 25.2719 21.9602 25.3727C23.1716 24.4645 24.3684 23.5717 25.5587 22.6716C25.846 22.4461 26.2026 22.3269 26.5678 22.3344C27.8897 22.3434 29.2116 22.3572 30.5335 22.3296C31.2168 22.3174 31.6856 22.5521 31.9244 23.1996Z" fill="#60340B"/>
<path d="M31.9244 19.2645C31.6742 19.9217 31.1859 20.1264 30.5018 20.1256C21.0771 20.1132 11.6523 20.1105 2.22763 20.1175C1.52565 20.1175 1.10885 19.8389 0.961788 19.2767C0.923861 19.1274 0.918 18.9718 0.94459 18.8201C0.97118 18.6684 1.02962 18.524 1.11606 18.3965C1.20249 18.2691 1.31496 18.1613 1.44606 18.0805C1.57716 17.9996 1.72391 17.9474 1.87664 17.9274C2.01725 17.9129 2.15861 17.9069 2.29994 17.9095C11.716 17.9095 21.1315 17.9068 30.5465 17.9014C31.2257 17.9014 31.6937 18.1296 31.9277 18.7795L31.9244 19.2645Z" fill="#60340B"/>
</g>
<defs>
<clipPath id="clip0_1050_1336">
<rect width="31" height="31" fill="white" transform="translate(0.924316 0.192383)"/>
</clipPath>
</defs>
</svg>
